<?xml version="1.0" encoding="utf-8"?>
<!-- Generator: Adobe Illustrator 16.0.0, SVG Export Plug-In . SVG Version: 6.00 Build 0)  -->
<!DOCTYPE svg PUBLIC "-//W3C//DTD SVG 1.1//EN" "http://www.w3.org/Graphics/SVG/1.1/DTD/svg11.dtd">
<svg version="1.1" id="Layer_1" xmlns="http://www.w3.org/2000/svg" xmlns:xlink="http://www.w3.org/1999/xlink" x="0px" y="0px"
	 width="512px" height="512px" viewBox="0 0 512 512" enable-background="new 0 0 512 512" xml:space="preserve">
<g>
	<path d="M123.342,266.273c-6.744,0-12.235,5.49-12.235,12.236c0,6.744,5.491,12.234,12.235,12.234h4.386
		c7.747-21.57,26.915-24.471,26.915-24.471H123.342z M306.653,194.505H123.342c-6.744,0-12.235,5.514-12.235,12.237
		c0,6.743,5.491,12.234,12.235,12.234h183.332c6.746,0,12.237-5.491,12.237-12.234C318.911,199.997,313.42,194.505,306.653,194.505z
		 M306.653,123.219H123.342c-6.744,0-12.235,5.491-12.235,12.236c0,6.744,5.491,12.235,12.235,12.235h183.332
		c6.746,0,12.237-5.491,12.237-12.235C318.911,128.71,313.42,123.219,306.653,123.219z M354.826,85.654L293.52,19.023
		c-2.065-2.234-4.949-3.507-7.997-3.507H95.842c-13.051,0-23.679,10.628-23.679,23.679c0,0-0.772,259.026,0,345.389
		c0.083,8.727,4.678,9.063,4.678,9.063l15.222-30.801V39.195c0-2.088,1.711-3.78,3.799-3.78h175.171
		c2.714,0,4.927,2.213,4.927,4.949v52.641c0,5.491,4.47,9.96,9.961,9.96h46.938c2.736,0,4.949,2.214,4.949,4.928v157.692h19.899
		V93.004C357.707,90.269,356.663,87.659,354.826,85.654z M295.879,83.065V50.95l29.547,32.115H295.879z"/>
	<path fill="#289BD7" d="M508.862,307.68l-90.477,171.223c-4.425,8.52-16.976,17.518-26.663,17.518l-362.845,0.064
		c-7.665,0-15.014-3.029-20.422-8.457C3.049,482.598,0,475.268,0,467.605l0.062-281.744c0-15.933,12.905-28.858,28.837-28.879
		l26.539-0.021v24.599H37.689c-3.487,0-6.807,1.398-9.272,3.842c-2.463,2.464-3.841,5.806-3.841,9.271l0.042,264.123
		c0,7.225,5.867,13.09,13.092,13.09h18.187l85.738-173.455c4.843-9.689,14.011-17.52,23.678-17.52H375.31l0.063-69.804
		c13.719,1.274,24.534,12.633,24.534,26.687v43.118h96.303C507.59,281.016,517.174,292.27,508.862,307.68z"/>
</g>
<g>
	<path fill="#FFFFFF" d="M153.301,415.234h-10.959v-52.453h10.959V415.234z"/>
	<path fill="#FFFFFF" d="M195.525,362.781h10.229v52.453h-10.959l-21.404-37.404h-0.146v37.404h-10.228v-52.453h11.543l20.82,36.527
		h0.146V362.781z"/>
	<path fill="#FFFFFF" d="M246.663,362.781h11.396l-17.825,52.453h-10.447l-17.679-52.453h11.762l11.25,39.741h0.146L246.663,362.781
		z"/>
	<path fill="#FFFFFF" d="M259.01,389.008c0-4.091,0.462-7.622,1.388-10.593c0.925-2.971,2.13-5.479,3.617-7.524
		c1.484-2.046,3.152-3.689,5.004-4.932c1.85-1.242,3.713-2.203,5.588-2.886c1.875-0.682,3.652-1.132,5.334-1.352
		c1.68-0.219,3.104-0.328,4.273-0.328c1.168,0,2.594,0.109,4.273,0.328c1.68,0.22,3.457,0.67,5.332,1.352
		c1.875,0.683,3.738,1.644,5.59,2.886c1.85,1.242,3.518,2.886,5.004,4.932c1.484,2.045,2.691,4.554,3.617,7.524
		c0.924,2.971,1.387,6.502,1.387,10.593s-0.463,7.623-1.387,10.593c-0.926,2.972-2.133,5.479-3.617,7.524
		c-1.486,2.046-3.154,3.689-5.004,4.932c-1.852,1.242-3.715,2.204-5.59,2.886s-3.652,1.132-5.332,1.352
		c-1.68,0.219-3.105,0.328-4.273,0.328c-1.17,0-2.594-0.109-4.273-0.328c-1.682-0.22-3.459-0.67-5.334-1.352
		s-3.738-1.644-5.588-2.886c-1.852-1.242-3.52-2.886-5.004-4.932c-1.487-2.045-2.692-4.553-3.617-7.524
		C259.472,396.631,259.01,393.099,259.01,389.008z M269.968,389.008c0,3.652,0.463,6.673,1.389,9.059
		c0.924,2.387,2.094,4.263,3.506,5.625c1.412,1.364,2.959,2.314,4.639,2.85c1.682,0.536,3.252,0.804,4.713,0.804
		s3.031-0.268,4.711-0.804c1.682-0.535,3.227-1.485,4.641-2.85c1.412-1.362,2.58-3.238,3.506-5.625
		c0.924-2.386,1.389-5.406,1.389-9.059s-0.465-6.672-1.389-9.059c-0.926-2.386-2.094-4.262-3.506-5.625
		c-1.414-1.363-2.959-2.313-4.641-2.85c-1.68-0.535-3.25-0.804-4.711-0.804s-3.031,0.269-4.713,0.804
		c-1.68,0.536-3.227,1.486-4.639,2.85s-2.582,3.239-3.506,5.625C270.431,382.336,269.968,385.355,269.968,389.008z"/>
	<path fill="#FFFFFF" d="M328.266,415.234h-10.958v-52.453h10.958V415.234z"/>
	<path fill="#FFFFFF" d="M371.951,379.949c-0.244-0.778-0.548-1.691-0.913-2.739c-0.365-1.047-0.975-2.033-1.826-2.959
		c-0.853-0.925-1.985-1.717-3.396-2.374c-1.414-0.658-3.24-0.986-5.479-0.986c-1.315,0-2.729,0.255-4.237,0.767
		c-1.51,0.512-2.922,1.45-4.237,2.813c-1.314,1.364-2.399,3.24-3.251,5.625c-0.853,2.388-1.278,5.432-1.278,9.132
		c0,2.338,0.243,4.592,0.73,6.758c0.486,2.168,1.254,4.08,2.302,5.735c1.047,1.656,2.386,2.971,4.018,3.944
		c1.631,0.975,3.616,1.461,5.954,1.461c3.068,0,5.6-0.84,7.598-2.521c1.996-1.68,3.335-4.127,4.018-7.342h10.959
		c-0.537,2.875-1.414,5.492-2.631,7.854c-1.218,2.363-2.775,4.396-4.675,6.101s-4.141,3.031-6.722,3.981
		c-2.582,0.949-5.504,1.424-8.766,1.424c-3.507,0-6.722-0.584-9.644-1.753s-5.442-2.909-7.562-5.224
		c-2.118-2.313-3.774-5.187-4.968-8.62s-1.789-7.415-1.789-11.944c0-4.577,0.62-8.596,1.862-12.054s2.946-6.344,5.114-8.657
		c2.166-2.313,4.723-4.055,7.671-5.224c2.945-1.169,6.1-1.753,9.46-1.753c3.945,0,7.306,0.609,10.082,1.826
		c2.775,1.218,5.077,2.739,6.903,4.565c1.826,1.827,3.189,3.824,4.091,5.991c0.9,2.167,1.425,4.226,1.571,6.173H371.951z"/>
	<path fill="#FFFFFF" d="M429.81,372.06h-27.834v11.031h25.569v9.277h-25.569v13.588h29.076v9.278h-39.815v-52.453h38.573V372.06z"
		/>
</g>
</svg>
